<svg xmlns="http://www.w3.org/2000/svg" viewBox="0 0 24 24" fill="currentColor">
  <path
    d="M9.36903 4.22437C9.7618 3.90402 10.3408 3.92662 10.7069 4.29273C11.0729 4.65886 11.0956 5.23791 10.7753 5.63063L10.7069 5.7068L5.41395 10.9998H20.9999C21.5522 10.9998 21.9999 11.4475 21.9999 11.9998C21.9999 12.5521 21.5522 12.9998 20.9999 12.9998H5.41395L10.7069 18.2927L10.7753 18.3689C11.0955 18.7617 11.073 19.3407 10.7069 19.7068C10.3408 20.0728 9.76177 20.0953 9.36903 19.7752L9.29285 19.7068L2.29285 12.7068C1.90236 12.3163 1.90241 11.6833 2.29285 11.2927L9.29285 4.29273L9.36903 4.22437Z"
  />
</svg>