<svg xmlns="http://www.w3.org/2000/svg" viewBox="0 0 24 24" fill="currentColor">
  <path
    d="M6.23084 9.66277C6.00765 9.66277 5.81651 9.75186 5.65867 9.92733C5.4996 10.1042 5.42068 10.3188 5.42068 10.5699C5.42068 10.8209 5.4996 11.0355 5.65867 11.2124C5.81774 11.3892 6.00765 11.4783 6.23084 11.4783C6.45404 11.4783 6.65133 11.3892 6.81287 11.2124C6.97441 11.0355 7.05457 10.8223 7.05457 10.5699C7.05457 10.3174 6.97441 10.1042 6.81287 9.92733C6.65133 9.75051 6.45773 9.66277 6.23084 9.66277Z" />
  <path
    d="M13.1524 9.65467C12.9292 9.65467 12.738 9.74241 12.5802 9.91923C12.4211 10.0961 12.3422 10.3107 12.3422 10.5618C12.3422 10.8128 12.4223 11.0274 12.5802 11.2043C12.738 11.3811 12.9292 11.4688 13.1524 11.4688C13.3755 11.4688 13.5728 11.3798 13.7344 11.2043C13.8959 11.0274 13.9761 10.8128 13.9761 10.5618C13.9761 10.3107 13.8959 10.0961 13.7344 9.91923C13.5728 9.74241 13.3792 9.65467 13.1524 9.65467Z" />
  <path
    d="M17.7679 9.66277C17.5447 9.66277 17.3536 9.75186 17.1945 9.92733C17.0367 10.1042 16.9565 10.3188 16.9565 10.5699C16.9565 10.8209 17.0367 11.0355 17.1945 11.2124C17.3536 11.3892 17.5447 11.4783 17.7679 11.4783C17.9911 11.4783 18.1884 11.3892 18.35 11.2124C18.5115 11.0355 18.5917 10.8223 18.5917 10.5699C18.5917 10.3174 18.5103 10.1042 18.35 9.92733C18.1884 9.75051 17.9948 9.66277 17.7679 9.66277Z" />
  <path
    d="M19.8198 3H4.18016C2.98156 3 2 4.07447 2 5.3865V15.0688C2 16.3809 2.98156 17.4553 4.18016 17.4553H10.3211C10.3211 17.4553 11.5074 21 11.939 21C12.3706 21 13.6542 17.4553 13.6542 17.4553H19.8198C21.0197 17.4553 22 16.3809 22 15.0688V5.3865C22 4.07447 21.0184 3 19.8198 3ZM7.81294 11.9386C7.50342 12.3206 7.02867 12.4812 6.51076 12.4812C6.04341 12.4812 5.70183 12.3273 5.44904 12.1168H5.43424V12.3894H4.26031V6.78358H5.43424V8.92711H5.44904C5.76719 8.63015 6.18891 8.52891 6.68586 8.51136C7.11129 8.49516 7.55398 8.78673 7.8191 9.12283C8.08299 9.45759 8.27659 9.98268 8.27659 10.5631C8.27659 11.1948 8.12368 11.5566 7.81294 11.9386ZM10.3334 12.4313H9.13607V8.9622C9.13607 8.16175 8.55774 8.05647 8.55774 8.05647V6.66884C8.55774 6.66884 10.236 6.78088 10.3334 9.00675V12.4313ZM15.0329 11.3676C14.9317 11.6187 14.7862 11.8427 14.5926 12.0398C14.4027 12.2342 14.1845 12.384 13.9366 12.488C13.69 12.5919 13.4286 12.6445 13.1536 12.6445C12.8786 12.6445 12.627 12.5919 12.3829 12.488C12.1375 12.384 11.9192 12.2342 11.7269 12.0398C11.5283 11.8346 11.3791 11.6079 11.2768 11.3595C11.1757 11.1111 11.1239 10.8479 11.1239 10.5685C11.1239 10.2891 11.1744 10.0259 11.2768 9.7775C11.3791 9.52913 11.5283 9.30236 11.7269 9.09719C11.9205 8.90146 12.1387 8.75298 12.3829 8.64904C12.627 8.54511 12.8835 8.49381 13.1536 8.49381C13.4236 8.49381 13.6888 8.54511 13.9366 8.64904C14.1832 8.75298 14.4015 8.90281 14.5926 9.09719C14.7862 9.29426 14.9317 9.51834 15.0329 9.7694C15.1327 10.0205 15.1833 10.2864 15.1833 10.5685C15.1833 10.8506 15.1327 11.1152 15.0329 11.3663V11.3676ZM19.7409 11.9251C19.7409 12.9091 19.5707 13.5098 19.1688 13.9269C18.6915 14.4223 18.0121 14.4574 17.4399 14.3683V13.3505C17.9171 13.4031 18.5744 13.0589 18.5732 12.3813V12.1208H18.5584C18.2908 12.5258 17.8999 12.6729 17.3795 12.6729C16.8973 12.6729 16.4793 12.4785 16.1969 12.1154C15.9133 11.7523 15.7727 11.2664 15.7727 10.6562C15.7727 9.97323 15.9306 9.42925 16.2463 9.02835C16.5607 8.6261 17.0108 8.43847 17.525 8.43847C17.9862 8.43847 18.276 8.55995 18.5596 8.84342H18.5744V8.53566H19.7409V11.9264V11.9251Z" />
</svg>