<svg xmlns="http://www.w3.org/2000/svg" viewBox="0 0 24 24" fill="currentColor">
  <path
    d="M18.2222 2C18.6937 2 19.1459 2.19319 19.4793 2.53707C19.8127 2.88096 20 3.34736 20 3.83368V14.8358C20 15.3221 19.8127 15.7885 19.4793 16.1324C19.1459 16.4763 18.6937 16.6695 18.2222 16.6695H16.4444V18.5032C16.4444 18.9895 16.2571 19.4559 15.9237 19.7998C15.5903 20.1437 15.1382 20.3368 14.6667 20.3368H5.77778C5.30628 20.3368 4.8541 20.1437 4.5207 19.7998C4.1873 19.4559 4 18.9895 4 18.5032V7.50105C4 7.01473 4.1873 6.54833 4.5207 6.20444C4.8541 5.86056 5.30628 5.66737 5.77778 5.66737H7.55556V3.83368C7.55556 3.34736 7.74286 2.88096 8.07625 2.53707C8.40965 2.19319 8.86184 2 9.33333 2H18.2222ZM14.6667 7.50105H5.77778V18.5032H14.6667V7.50105ZM10.2222 13.919C10.458 13.919 10.6841 14.0155 10.8508 14.1875C11.0175 14.3594 11.1111 14.5926 11.1111 14.8358C11.1111 15.079 11.0175 15.3122 10.8508 15.4841C10.6841 15.656 10.458 15.7526 10.2222 15.7526H8.44444C8.2087 15.7526 7.9826 15.656 7.81591 15.4841C7.64921 15.3122 7.55556 15.079 7.55556 14.8358C7.55556 14.5926 7.64921 14.3594 7.81591 14.1875C7.9826 14.0155 8.2087 13.919 8.44444 13.919H10.2222ZM18.2222 3.83368H9.33333V5.66737H14.6667C15.1382 5.66737 15.5903 5.86056 15.9237 6.20444C16.2571 6.54833 16.4444 7.01473 16.4444 7.50105V14.8358H18.2222V3.83368ZM12 10.2516C12.2266 10.2518 12.4445 10.3413 12.6092 10.5017C12.774 10.6622 12.8731 10.8814 12.8864 11.1147C12.8997 11.348 12.8261 11.5777 12.6807 11.7569C12.5352 11.9361 12.329 12.0512 12.104 12.0788L12 12.0853H8.44444C8.21788 12.085 7.99997 11.9955 7.83523 11.8351C7.67048 11.6747 7.57135 11.4554 7.55807 11.2222C7.54479 10.9889 7.61838 10.7592 7.76379 10.58C7.9092 10.4008 8.11547 10.2856 8.34044 10.258L8.44444 10.2516H12Z"
  />
</svg>