<svg xmlns="http://www.w3.org/2000/svg" viewBox="0 0 24 24" fill="currentColor">
  <path
    d="M12.1285 14.8944L20.513 6.70803C20.5944 6.62803 20.6914 6.56482 20.7983 6.52213C20.9051 6.47945 21.0196 6.45816 21.135 6.45953C21.2504 6.46089 21.3644 6.48489 21.4701 6.53009C21.5759 6.5753 21.6713 6.64079 21.7507 6.72269C21.9133 6.89022 22.0027 7.11315 21.9999 7.34411C21.9971 7.57508 21.9023 7.79587 21.7357 7.95957L12.731 16.751C12.6503 16.8305 12.5541 16.8935 12.4481 16.9362C12.3421 16.979 12.2284 17.0007 12.1138 17C11.9991 16.9993 11.8858 16.9763 11.7803 16.9323C11.6749 16.8882 11.5795 16.8241 11.4997 16.7436L2.25505 7.49024C2.09144 7.32459 2 7.1033 2 6.87303C2 6.64275 2.09144 6.42146 2.25505 6.25581C2.33545 6.17487 2.43165 6.11052 2.53794 6.06658C2.64423 6.02264 2.75846 6 2.87386 6C2.98927 6 3.1035 6.02264 3.20979 6.06658C3.31608 6.11052 3.41227 6.17487 3.49267 6.25581L12.1285 14.8944Z"
  />
</svg>