<svg xmlns="http://www.w3.org/2000/svg" viewBox="0 0 24 24" fill="currentColor">
  <path fill-rule="evenodd" clip-rule="evenodd"
    d="M3.5 7.8713C3.5 6.71196 3.956 5.6001 4.76768 4.78032C5.57937 3.96055 6.68025 3.5 7.82814 3.5H12.4111C12.6475 3.5 12.8741 3.59482 13.0413 3.7636C13.2084 3.93239 13.3023 4.1613 13.3023 4.4C13.3023 4.63869 13.2084 4.86761 13.0413 5.0364C12.8741 5.20518 12.6475 5.3 12.4111 5.3H7.82814C7.15293 5.3 6.50536 5.5709 6.02791 6.05312C5.55046 6.53533 5.28223 7.18935 5.28223 7.8713V16.1287C5.28223 16.8107 5.55046 17.4647 6.02791 17.9469C6.50536 18.4291 7.15293 18.7 7.82814 18.7H16.004C16.6792 18.7 17.3268 18.4291 17.8043 17.9469C18.2817 17.4647 18.5499 16.8107 18.5499 16.1287V11.5C18.5499 11.2613 18.6438 11.0324 18.8109 10.8636C18.9781 10.6948 19.2047 10.6 19.4411 10.6C19.6774 10.6 19.9041 10.6948 20.0712 10.8636C20.2383 11.0324 20.3322 11.2613 20.3322 11.5V16.1287C20.3322 17.288 19.8762 18.3999 19.0645 19.2197C18.2528 20.0395 17.1519 20.5 16.004 20.5H7.82814C6.68025 20.5 5.57937 20.0395 4.76768 19.2197C3.956 18.3999 3.5 17.288 3.5 16.1287V7.8713Z"
  />
  <path fill-rule="evenodd" clip-rule="evenodd"
    d="M14.3857 13.4476L12.4208 14.6446L11.5003 13.1029L13.4652 11.9059L13.4679 11.9041C13.5432 11.8582 13.6126 11.8032 13.6746 11.7403L18.1391 7.20786C18.1838 7.16232 18.2269 7.11519 18.2683 7.06656C18.5633 6.71916 18.9999 6.03156 18.4715 5.49516C18.025 5.04156 17.3852 5.46996 16.9709 5.83806C16.8597 5.93702 16.7527 6.04061 16.6501 6.14856L16.6198 6.17916L12.2177 10.6477C12.1131 10.7526 12.0312 10.8782 11.977 11.0167L11.2428 12.8824C11.2288 12.9175 11.2262 12.9561 11.2353 12.9928C11.2443 13.0295 11.2646 13.0624 11.2932 13.0868C11.3218 13.1112 11.3573 13.1259 11.3946 13.1288C11.432 13.1317 11.4684 13.1226 11.5003 13.1029L12.4208 14.6446C10.8124 15.6238 8.89201 13.9786 9.58708 12.2164L10.3222 10.3516C10.4654 9.98715 10.6807 9.65609 10.9549 9.37866L15.3562 4.90926L15.382 4.88316C15.513 4.74816 15.9532 4.29276 16.487 3.96516C16.7784 3.78786 17.2435 3.55296 17.8183 3.50796C18.4777 3.45486 19.1817 3.66456 19.7342 4.22526C20.1571 4.64717 20.423 5.20342 20.4872 5.80026C20.5313 6.26546 20.4609 6.73448 20.2822 7.16556C20.0238 7.81086 19.5925 8.28516 19.4027 8.47686L14.9382 13.0093C14.7719 13.1779 14.5877 13.324 14.3857 13.4476ZM18.3539 7.03416C18.3539 7.03416 18.3503 7.03686 18.3423 7.03956L18.3539 7.03416Z"
  />
</svg>