<svg xmlns="http://www.w3.org/2000/svg" viewBox="0 0 24 24" fill="currentColor">
  <path
    d="M5 4.8C5 4.32261 5.18437 3.86477 5.51256 3.52721C5.84075 3.18964 6.28587 3 6.75 3H13.75C13.982 3.00005 14.2046 3.09491 14.3686 3.2637L18.7436 7.7637C18.9077 7.93244 19 8.16132 19 8.4V19.2C19 19.6774 18.8156 20.1352 18.4874 20.4728C18.1592 20.8104 17.7141 21 17.25 21H6.75C6.28587 21 5.84075 20.8104 5.51256 20.4728C5.18437 20.1352 5 19.6774 5 19.2V4.8ZM16.8878 8.4L13.75 5.1726V8.4H16.8878ZM12 4.8H6.75V19.2H17.25V10.2H12.875C12.6429 10.2 12.4204 10.1052 12.2563 9.9364C12.0922 9.76761 12 9.53869 12 9.3V4.8ZM8.5 12.9C8.5 12.6613 8.59219 12.4324 8.75628 12.2636C8.92038 12.0948 9.14294 12 9.375 12H14.625C14.8571 12 15.0796 12.0948 15.2437 12.2636C15.4078 12.4324 15.5 12.6613 15.5 12.9C15.5 13.1387 15.4078 13.3676 15.2437 13.5364C15.0796 13.7052 14.8571 13.8 14.625 13.8H9.375C9.14294 13.8 8.92038 13.7052 8.75628 13.5364C8.59219 13.3676 8.5 13.1387 8.5 12.9ZM8.5 16.5C8.5 16.2613 8.59219 16.0324 8.75628 15.8636C8.92038 15.6948 9.14294 15.6 9.375 15.6H14.625C14.8571 15.6 15.0796 15.6948 15.2437 15.8636C15.4078 16.0324 15.5 16.2613 15.5 16.5C15.5 16.7387 15.4078 16.9676 15.2437 17.1364C15.0796 17.3052 14.8571 17.4 14.625 17.4H9.375C9.14294 17.4 8.92038 17.3052 8.75628 17.1364C8.59219 16.9676 8.5 16.7387 8.5 16.5Z"
  />
</svg>