<svg xmlns="http://www.w3.org/2000/svg" viewBox="0 0 24 24" fill="currentColor">
  <path fill-rule="evenodd" clip-rule="evenodd"
    d="M21 3H3V8.66667C3 10.33 4.56695 11.6128 6.41251 11.6128C7.5585 11.6128 8.58455 11.1245 9.20668 10.3599C9.82882 11.1245 10.8549 11.6128 12.0009 11.6128C13.1463 11.6128 14.172 11.1249 14.7942 10.361C15.4164 11.1249 16.442 11.6128 17.5875 11.6128C19.433 11.6128 21 10.3306 21 8.6672V3ZM4.63672 8.21485V4.81122H8.18892V8.21521C8.18892 9.06898 7.41875 9.80478 6.41282 9.80478C5.40694 9.80478 4.63672 9.06867 4.63672 8.21485ZM10.2242 8.21485V4.81122H13.7764V8.21521C13.7764 9.06898 13.0062 9.80478 12.0003 9.80478C10.9944 9.80478 10.2242 9.06867 10.2242 8.21485ZM15.8117 8.21521V4.81122H19.3639V8.21485C19.3639 9.06867 18.5937 9.80478 17.5878 9.80478C16.5819 9.80478 15.8117 9.06898 15.8117 8.21521Z"
  />
  <path d="M5.53174 14.0204H3.79825V21H20.2022V14.0204H18.4687V19.0998H5.53174V14.0204Z"
  />
  <path d="M16.5837 14.0204H14.5V16.9184H16.5837V14.0204Z" />
</svg>