<svg xmlns="http://www.w3.org/2000/svg" viewBox="0 0 24 24" fill="currentColor">
  <path
    d="M12.1285 8.10558L20.513 16.292C20.5944 16.372 20.6914 16.4352 20.7983 16.4779C20.9051 16.5206 21.0196 16.5418 21.135 16.5405C21.2504 16.5391 21.3644 16.5151 21.4701 16.4699C21.5759 16.4247 21.6713 16.3592 21.7507 16.2773C21.9133 16.1098 22.0027 15.8869 21.9999 15.6559C21.9971 15.4249 21.9023 15.2041 21.7357 15.0404L12.731 6.24903C12.6503 6.1695 12.554 6.10652 12.4481 6.06376C12.3421 6.021 12.2284 5.99933 12.1138 6.00002C11.9991 6.0007 11.8858 6.02372 11.7803 6.06774C11.6749 6.11175 11.5795 6.17588 11.4997 6.25636L2.25505 15.5098C2.09144 15.6754 2 15.8967 2 16.127C2 16.3573 2.09144 16.5785 2.25505 16.7442C2.33545 16.8251 2.43165 16.8895 2.53794 16.9334C2.64423 16.9774 2.75846 17 2.87386 17C2.98927 17 3.1035 16.9774 3.20979 16.9334C3.31608 16.8895 3.41227 16.8251 3.49267 16.7442L12.1285 8.10558Z"
  />
</svg>