<svg xmlns="http://www.w3.org/2000/svg" viewBox="0 0 24 24" fill="currentColor">
  <path
    d="M10.2 15.2857L14.871 12.5L10.2 9.71429V15.2857ZM20.604 8.015C20.721 8.45143 20.802 9.03643 20.856 9.77929C20.919 10.5221 20.946 11.1629 20.946 11.72L21 12.5C21 14.5336 20.856 16.0286 20.604 16.985C20.379 17.8207 19.857 18.3593 19.047 18.5914C18.624 18.7121 17.85 18.7957 16.662 18.8514C15.492 18.9164 14.421 18.9443 13.431 18.9443L12 19C8.229 19 5.88 18.8514 4.953 18.5914C4.143 18.3593 3.621 17.8207 3.396 16.985C3.279 16.5486 3.198 15.9636 3.144 15.2207C3.081 14.4779 3.054 13.8371 3.054 13.28L3 12.5C3 10.4664 3.144 8.97143 3.396 8.015C3.621 7.17929 4.143 6.64071 4.953 6.40857C5.376 6.28786 6.15 6.20429 7.338 6.14857C8.508 6.08357 9.579 6.05571 10.569 6.05571L12 6C15.771 6 18.12 6.14857 19.047 6.40857C19.857 6.64071 20.379 7.17929 20.604 8.015Z"
  />
</svg>